#!OML:ASF X:\für Bonn\!DataBase\2005_08_11_Bastian_Final\c3d\Bastian.ASF
:FULLY-SPECIFIED
:DEGREES
91
root -2.17541 16.5907 6.29321 135.983 -20.4329 -167.37
lowerback 48.388 -8.19051 2.21975
upperback 13.4422 -16.8898 6.41547
thorax -3.02806 -12.0812 12.2509
lowerneck -12.5872 -2.61729 -5.47008
upperneck -5.10272 -2.14324 7.38503
head 0.717293 -0.605083 3.28274
rclavicle -5.40694e-014 7.63333e-014
rhumerus -35.6831 41.5034 -93.0085
rradius 45.3668
rwrist -23.2941
rhand -33.5704 5.79903
rfingers 7.12502
rthumb -6.76485 -24.0729
lclavicle -5.40694e-014 7.63333e-014
lhumerus 53.2504 -19.7887 77.1241
lradius 119.256
lwrist -19.0324
lhand -60.7677 -13.7855
lfingers 7.12502
lthumb -32.8824 13.2395
rfemur -94.2139 0.646398 41.6238
rtibia 139.004
rfoot 10.237 -13.5604
rtoes -6.88085
lfemur 25.5083 -7.07127 -15.6601
ltibia 35.4727
lfoot -12.4449 -9.44031
ltoes 7.23542
92
root -2.1739 16.5856 6.31144 136.023 -20.4499 -167.36
lowerback 48.461 -8.20572 2.27996
upperback 13.4648 -16.917 6.4485
thorax -3.00569 -12.1128 12.2704
lowerneck -12.8823 -2.63048 -5.4279
upperneck -5.10259 -2.13774 7.36027
head 0.766686 -0.590971 3.26679
rclavicle -1.03368e-014 1.07344e-013
rhumerus -35.3033 41.3133 -92.7317
rradius 45.5719
rwrist -23.0546
rhand -33.675 5.83102
rfingers 7.12502
rthumb -6.86589 -24.0376
lclavicle -1.03368e-014 1.07344e-013
lhumerus 53.0588 -20.0369 77.084
lradius 119.653
lwrist -19.1215
lhand -60.9259 -13.8027
lfingers 7.12502
lthumb -33.0329 13.1906
rfemur -94.1389 0.688017 41.4475
rtibia 139.084
rfoot 10.1779 -13.4188
rtoes -6.54683
lfemur 25.2913 -7.01447 -15.6167
ltibia 35.6555
lfoot -12.4821 -9.50626
ltoes 7.12532
93
root -2.17254 16.5814 6.32956 136.079 -20.4474 -167.371
lowerback 48.5349 -8.226 2.35311
upperback 13.484 -16.9405 6.46427
thorax -2.99426 -12.1379 12.2661
lowerneck -13.191 -2.64696 -5.37795
upperneck -5.11686 -2.13431 7.33572
head 0.813674 -0.576836 3.24941
rclavicle -2.38542e-014 -3.89618e-014
rhumerus -34.9698 41.1422 -92.4665
rradius 45.82
rwrist -22.8296
rhand -33.7766 5.80818
rfingers 7.12502
rthumb -6.96389 -24.0573
lclavicle -2.38542e-014 -3.89618e-014
lhumerus 52.8746 -20.299 77.0419
lradius 119.99
lwrist -19.2599
lhand -61.0624 -13.8259
lfingers 7.12502
lthumb -33.1627 13.1398
rfemur -94.0962 0.736325 41.277
rtibia 139.177
rfoot 10.1595 -13.2455
rtoes -6.34493
lfemur 25.0903 -6.94645 -15.5962
ltibia 35.8071
lfoot -12.506 -9.54962
ltoes 6.84917
94
root -2.17067 16.5789 6.3489 136.153 -20.4689 -167.406
lowerback 48.6254 -8.24086 2.42681
upperback 13.4935 -16.9504 6.48327
thorax -2.99761 -12.1536 12.2646
lowerneck -13.5784 -2.67007 -5.30478
upperneck -5.09297 -2.13999 7.31327
head 0.887073 -0.565133 3.22832
rclavicle 1.51076e-014 -1.43125e-014
rhumerus -34.5799 40.9044 -92.1557
rradius 46.0129
rwrist -22.5569
rhand -33.8841 5.84445
rfingers 7.12502
rthumb -7.06767 -24.0175
lclavicle 1.51076e-014 -1.43125e-014
lhumerus 52.7319 -20.6119 76.9944
lradius 120.313
lwrist -19.4524
lhand -61.2288 -13.7379
lfingers 7.12502
lthumb -33.3209 13.194
rfemur -94.0666 0.756985 41.0431
rtibia 139.279
rfoot 10.1395 -13.0183
rtoes -6.15438
lfemur 24.8923 -6.87746 -15.6098
ltibia 35.9156
lfoot -12.5208 -9.56011
ltoes 6.55385
95
root -2.16917 16.5802 6.37019 136.271 -20.4783 -167.417
lowerback 48.6866 -8.27909 2.51034
upperback 13.4849 -16.981 6.52737
thorax -3.00761 -12.1783 12.2925
lowerneck -13.954 -2.68817 -5.33231
upperneck -5.08432 -2.12398 7.3407
head 0.955089 -0.540166 3.24533
rclavicle -8.0309e-014 3.18055e-014
rhumerus -34.1787 40.6869 -91.7916
rradius 46.1895
rwrist -22.2397
rhand -33.9591 5.97306
rfingers 7.12502
rthumb -7.14009 -23.8865
lclavicle -8.0309e-014 3.18055e-014
lhumerus 52.6016 -20.8435 76.9358
lradius 120.636
lwrist -19.7255
lhand -61.4025 -13.381
lfingers 7.12502
lthumb -33.486 13.5154
rfemur -94.107 0.762171 40.8363
rtibia 139.378
rfoot 10.154 -12.7762
rtoes -6.10821
lfemur 24.6566 -6.81905 -15.5965
ltibia 35.9748
lfoot -12.5052 -9.57591
ltoes 6.17455
96
root -2.16739 16.584 6.39265 136.397 -20.4635 -167.43
lowerback 48.7116 -8.30883 2.62791
upperback 13.5093 -16.9931 6.5466
thorax -2.98996 -12.1938 12.2624
lowerneck -14.3038 -2.7005 -5.29031
upperneck -5.12394 -2.1043 7.39176
head 1.00168 -0.512371 3.25734
rclavicle -3.73715e-014 8.82604e-014
rhumerus -33.7521 40.45 -91.4554
rradius 46.3295
rwrist -21.9665
rhand -34.0651 6.16793
rfingers 7.12502
rthumb -7.24236 -23.6881
lclavicle -3.73715e-014 8.82604e-014
lhumerus 52.5411 -21.0815 76.8296
lradius 120.906
lwrist -20.0012
lhand -61.5759 -13.0149
lfingers 7.12502
lthumb -33.6508 13.8457
rfemur -94.148 0.769246 40.6384
rtibia 139.465
rfoot 10.2057 -12.4693
rtoes -6.12642
lfemur 24.4295 -6.7459 -15.5695
ltibia 35.9992
lfoot -12.4522 -9.56859
ltoes 5.90066
97
root -2.16569 16.5909 6.41559 136.552 -20.442 -167.456
lowerback 48.6614 -8.33024 2.72556
upperback 13.5608 -17.0143 6.56849
thorax -2.92652 -12.2187 12.2324
lowerneck -14.5972 -2.70552 -5.31373
upperneck -5.20121 -2.0647 7.49615
head 1.02713 -0.473267 3.30158
rclavicle 8.74653e-015 5.88403e-014
rhumerus -33.3001 40.229 -91.0912
rradius 46.4413
rwrist -21.6006
rhand -34.2169 6.37742
rfingers 7.12502
rthumb -7.3889 -23.4736
lclavicle 8.74653e-015 5.88403e-014
lhumerus 52.5218 -21.2588 76.6963
lradius 121.136
lwrist -20.2726
lhand -61.791 -12.7062
lfingers 7.12502
lthumb -33.8551 14.1096
rfemur -94.2027 0.774908 40.4332
rtibia 139.564
rfoot 10.2628 -12.1465
rtoes -6.1792
lfemur 24.1857 -6.66377 -15.5409
ltibia 36.0101
lfoot -12.3967 -9.59522
ltoes 5.89456
98
root -2.16443 16.596 6.43903 136.721 -20.4139 -167.493
lowerback 48.5706 -8.32097 2.80887
upperback 13.6427 -17.0185 6.60344
thorax -2.8208 -12.2438 12.2052
lowerneck -14.8367 -2.71511 -5.33414
upperneck -5.35871 -2.02464 7.60148
head 1.01638 -0.433101 3.34512
rclavicle 2.70347e-014 -2.38542e-015
rhumerus -32.7549 39.9887 -90.673
rradius 46.5058
rwrist -21.2428
rhand -34.3451 6.61949
rfingers 7.12502
rthumb -7.51265 -23.2271
lclavicle 2.70347e-014 -2.38542e-015
lhumerus 52.5635 -21.3936 76.5453
lradius 121.304
lwrist -20.5964
lhand -62.0389 -12.2286
lfingers 7.12502
lthumb -34.0907 14.535
rfemur -94.2322 0.764486 40.2147
rtibia 139.665
rfoot 10.2655 -11.7713
rtoes -6.31658
lfemur 23.9312 -6.57117 -15.529
ltibia 36.0171
lfoot -12.3314 -9.56202
ltoes 5.76649
99
root -2.16384 16.5994 6.46277 136.927 -20.3776 -167.52
lowerback 48.4665 -8.34062 2.91084
upperback 13.6962 -17.0293 6.62384
thorax -2.75058 -12.2587 12.1619
lowerneck -14.9842 -2.68839 -5.28336
upperneck -5.54659 -1.95003 7.69796
head 0.975436 -0.379439 3.37335
rclavicle -4.69132e-014 7.55382e-014
rhumerus -32.2764 39.6935 -90.3072
rradius 46.5628
rwrist -20.8316
rhand -34.4503 6.88276
rfingers 7.12502
rthumb -7.6142 -22.9602
lclavicle -4.69132e-014 7.55382e-014
lhumerus 52.55 -21.4924 76.4265
lradius 121.416
lwrist -20.8563
lhand -62.3435 -11.971
lfingers 7.12502
lthumb -34.3799 14.7276
rfemur -94.2426 0.753834 39.9991
rtibia 139.765
rfoot 10.2243 -11.3633
rtoes -6.61554
lfemur 23.6415 -6.49576 -15.5163
ltibia 36.0178
lfoot -12.2865 -9.53526
ltoes 5.73886
100
root -2.16332 16.6037 6.48611 137.134 -20.3018 -167.521
lowerback 48.3692 -8.34556 3.03372
upperback 13.7417 -17.0143 6.67351
thorax -2.68928 -12.2636 12.1342
lowerneck -15.1104 -2.64332 -5.15829
upperneck -5.75594 -1.86047 7.75011
head 0.920093 -0.320502 3.37231
rclavicle 1.28017e-013 -6.99722e-014
rhumerus -31.7997 39.4051 -89.9035
rradius 46.6195
rwrist -20.4102
rhand -34.5379 7.17879
rfingers 7.12502
rthumb -7.69872 -22.6611
lclavicle 1.28017e-013 -6.99722e-014
lhumerus 52.5511 -21.5538 76.3053
lradius 121.425
lwrist -21.0994
lhand -62.7271 -11.8285
lfingers 7.12502
lthumb -34.744 14.787
rfemur -94.2063 0.750744 39.8033
rtibia 139.853
rfoot 10.1106 -10.9769
rtoes -6.69152
lfemur 23.3592 -6.41499 -15.4587
ltibia 35.9846
lfoot -12.2349 -9.48377
ltoes 5.46003
